HIERARCHY
ROOT Joint0
{
  OFFSET 0.0000 0.0000 1.0000
  CHANNELS 6 Xposition Yposition Zposition Zrotation Xrotation Yrotation
  JOINT Joint1
  {
    OFFSET 0.0811 -0.0899 -0.0114
    CHANNELS 3 Zrotation Xrotation Yrotation
    JOINT Joint4
    {
      OFFSET 0.0297 -0.3677 -0.0039
      CHANNELS 3 Zrotation Xrotation Yrotation
      JOINT Joint7
      {
        OFFSET -0.0120 -0.3841 -0.0490
        CHANNELS 3 Zrotation Xrotation Yrotation
        JOINT Joint10
        {
          OFFSET 0.0247 -0.0555 0.1226
          CHANNELS 3 Zrotation Xrotation Yrotation
          End Site
          {
            OFFSET 0.0247 -0.0555 0.1226
          }
        }
      }
    }
  }
  JOINT Joint2
  {
    OFFSET -0.0773 -0.0878 -0.0084
    CHANNELS 3 Zrotation Xrotation Yrotation
    JOINT Joint5
    {
      OFFSET -0.0344 -0.3716 -0.0062
      CHANNELS 3 Zrotation Xrotation Yrotation
      JOINT Joint8
      {
        OFFSET 0.0139 -0.3835 -0.0484
        CHANNELS 3 Zrotation Xrotation Yrotation
        JOINT Joint11
        {
          OFFSET -0.0293 -0.0469 0.1263
          CHANNELS 3 Zrotation Xrotation Yrotation
          End Site
          {
            OFFSET -0.0293 -0.0469 0.1263
          }
        }
      }
    }
  }
  JOINT Joint3
  {
    OFFSET -0.0027 0.1037 -0.0232
    CHANNELS 3 Zrotation Xrotation Yrotation
    JOINT Joint6
    {
      OFFSET 0.0030 0.1296 -0.0027
      CHANNELS 3 Zrotation Xrotation Yrotation
      JOINT Joint9
      {
        OFFSET 0.0015 0.0533 0.0332
        CHANNELS 3 Zrotation Xrotation Yrotation
        JOINT Joint12
        {
          OFFSET -0.0004 0.2283 -0.0600
          CHANNELS 3 Zrotation Xrotation Yrotation
          JOINT Joint15
          {
            OFFSET 0.0048 0.0641 0.0558
            CHANNELS 3 Zrotation Xrotation Yrotation
            End Site
            {
              OFFSET 0.0048 0.0641 0.0558
            }
          }
        }
        JOINT Joint13
        {
          OFFSET 0.0787 0.1275 -0.0430
          CHANNELS 3 Zrotation Xrotation Yrotation
          JOINT Joint16
          {
            OFFSET 0.0914 0.0355 -0.0086
            CHANNELS 3 Zrotation Xrotation Yrotation
            JOINT Joint18
            {
              OFFSET 0.2512 -0.0141 -0.0294
              CHANNELS 3 Zrotation Xrotation Yrotation
              JOINT Joint20
              {
                OFFSET 0.2431 0.0092 0.0027
                CHANNELS 3 Zrotation Xrotation Yrotation
                JOINT Joint22
                {
                  OFFSET 0.1053 -0.0108 0.0234
                  CHANNELS 3 Zrotation Xrotation Yrotation
                  JOINT Joint23
                  {
                    OFFSET 0.0332 0.0042 0.0030
                    CHANNELS 3 Zrotation Xrotation Yrotation
                    JOINT Joint24
                    {
                      OFFSET 0.0234 -0.0009 0.0005
                      CHANNELS 3 Zrotation Xrotation Yrotation
                      End Site
                      {
                        OFFSET 0.0234 -0.0009 0.0005
                      }
                    }
                  }
                }
                JOINT Joint25
                {
                  OFFSET 0.1126 -0.0078 -0.0002
                  CHANNELS 3 Zrotation Xrotation Yrotation
                  JOINT Joint26
                  {
                    OFFSET 0.0317 0.0021 -0.0047
                    CHANNELS 3 Zrotation Xrotation Yrotation
                    JOINT Joint27
                    {
                      OFFSET 0.0246 -0.0008 -0.0039
                      CHANNELS 3 Zrotation Xrotation Yrotation
                      End Site
                      {
                        OFFSET 0.0246 -0.0008 -0.0039
                      }
                    }
                  }
                }
                JOINT Joint28
                {
                  OFFSET 0.0860 -0.0168 -0.0403
                  CHANNELS 3 Zrotation Xrotation Yrotation
                  JOINT Joint29
                  {
                    OFFSET 0.0158 -0.0006 -0.0114
                    CHANNELS 3 Zrotation Xrotation Yrotation
                    JOINT Joint30
                    {
                      OFFSET 0.0161 -0.0011 -0.0109
                      CHANNELS 3 Zrotation Xrotation Yrotation
                      End Site
                      {
                        OFFSET 0.0161 -0.0011 -0.0109
                      }
                    }
                  }
                }
                JOINT Joint31
                {
                  OFFSET 0.0999 -0.0111 -0.0238
                  CHANNELS 3 Zrotation Xrotation Yrotation
                  JOINT Joint32
                  {
                    OFFSET 0.0286 0.0023 -0.0053
                    CHANNELS 3 Zrotation Xrotation Yrotation
                    JOINT Joint33
                    {
                      OFFSET 0.0234 -0.0009 -0.0074
                      CHANNELS 3 Zrotation Xrotation Yrotation
                      End Site
                      {
                        OFFSET 0.0234 -0.0009 -0.0074
                      }
                    }
                  }
                }
                JOINT Joint34
                {
                  OFFSET 0.0426 -0.0219 0.0277
                  CHANNELS 3 Zrotation Xrotation Yrotation
                  JOINT Joint35
                  {
                    OFFSET 0.0185 0.0008 0.0246
                    CHANNELS 3 Zrotation Xrotation Yrotation
                    JOINT Joint36
                    {
                      OFFSET 0.0221 -0.0048 0.0152
                      CHANNELS 3 Zrotation Xrotation Yrotation
                      End Site
                      {
                        OFFSET 0.0221 -0.0048 0.0152
                      }
                    }
                  }
                }
              }
            }
          }
        }
        JOINT Joint14
        {
          OFFSET -0.0815 0.1251 -0.0492
          CHANNELS 3 Zrotation Xrotation Yrotation
          JOINT Joint17
          {
            OFFSET -0.0975 0.0385 -0.0099
            CHANNELS 3 Zrotation Xrotation Yrotation
            JOINT Joint19
            {
              OFFSET -0.2546 -0.0159 -0.0229
              CHANNELS 3 Zrotation Xrotation Yrotation
              JOINT Joint21
              {
                OFFSET -0.2519 0.0079 0.0007
                CHANNELS 3 Zrotation Xrotation Yrotation
                JOINT Joint37
                {
                  OFFSET -0.1043 -0.0103 0.0246
                  CHANNELS 3 Zrotation Xrotation Yrotation
                  JOINT Joint38
                  {
                    OFFSET -0.0341 0.0034 0.0025
                    CHANNELS 3 Zrotation Xrotation Yrotation
                    JOINT Joint39
                    {
                      OFFSET -0.0236 -0.0015 -0.0003
                      CHANNELS 3 Zrotation Xrotation Yrotation
                      End Site
                      {
                        OFFSET -0.0236 -0.0015 -0.0003
                      }
                    }
                  }
                }
                JOINT Joint40
                {
                  OFFSET -0.1123 -0.0074 -0.0003
                  CHANNELS 3 Zrotation Xrotation Yrotation
                  JOINT Joint41
                  {
                    OFFSET -0.0322 0.0016 -0.0048
                    CHANNELS 3 Zrotation Xrotation Yrotation
                    JOINT Joint42
                    {
                      OFFSET -0.0245 -0.0012 -0.0045
                      CHANNELS 3 Zrotation Xrotation Yrotation
                      End Site
                      {
                        OFFSET -0.0245 -0.0012 -0.0045
                      }
                    }
                  }
                }
                JOINT Joint43
                {
                  OFFSET -0.0863 -0.0161 -0.0419
                  CHANNELS 3 Zrotation Xrotation Yrotation
                  JOINT Joint44
                  {
                    OFFSET -0.0162 -0.0001 -0.0120
                    CHANNELS 3 Zrotation Xrotation Yrotation
                    JOINT Joint45
                    {
                      OFFSET -0.0165 -0.0007 -0.0110
                      CHANNELS 3 Zrotation Xrotation Yrotation
                      End Site
                      {
                        OFFSET -0.0165 -0.0007 -0.0110
                      }
                    }
                  }
                }
                JOINT Joint46
                {
                  OFFSET -0.0999 -0.0107 -0.0248
                  CHANNELS 3 Zrotation Xrotation Yrotation
                  JOINT Joint47
                  {
                    OFFSET -0.0290 0.0016 -0.0050
                    CHANNELS 3 Zrotation Xrotation Yrotation
                    JOINT Joint48
                    {
                      OFFSET -0.0236 -0.0012 -0.0076
                      CHANNELS 3 Zrotation Xrotation Yrotation
                      End Site
                      {
                        OFFSET -0.0236 -0.0012 -0.0076
                      }
                    }
                  }
                }
                JOINT Joint49
                {
                  OFFSET -0.0397 -0.0214 0.0306
                  CHANNELS 3 Zrotation Xrotation Yrotation
                  JOINT Joint50
                  {
                    OFFSET -0.0191 0.0007 0.0247
                    CHANNELS 3 Zrotation Xrotation Yrotation
                    JOINT Joint51
                    {
                      OFFSET -0.0231 -0.0056 0.0141
                      CHANNELS 3 Zrotation Xrotation Yrotation
                      End Site
                      {
                        OFFSET -0.0231 -0.0056 0.0141
                      }
                    }
                  }
                }
              }
            }
          }
        }
      }
    }
  }
}
MOTION
Frames: 9
Frame Time: 0.0333
0.0000 0.0000 0.0000 -120.1162 85.2650 -67.4889 24.5124 6.0574 -0.9451 6.2042 0.6076 -12.3411 2.6463 -6.8597 9.7710 -0.3150 -0.0993 0.4426 -26.7998 -24.6940 -11.5385 8.4474 6.1124 -15.8288 16.8875 -11.5654 26.5362 0.2704 -0.5835 0.0273 -11.4532 -0.5262 24.2143 21.1942 6.3122 3.9371 -18.9594 -20.2721 33.8006 -0.5975 -10.9717 13.1779 -5.1010 1.8045 -14.1008 -35.7884 -22.4891 3.9244 -89.8495 -19.4593 -61.7651 21.6842 17.8416 10.9481 15.6705 39.5642 -12.3107 -23.4876 5.5864 3.4576 -42.9695 7.3629 -1.0192 -11.3267 -4.8330 -5.7785 -30.3040 -7.6874 0.8733 -40.4714 -8.4767 -0.0475 -19.8346 -0.4544 -5.2520 -40.5163 -20.8693 -19.3212 -29.8851 -11.0782 -6.6622 -5.5326 -21.3925 -4.5133 -36.7599 -5.7213 -6.7600 -37.0016 -15.0123 -8.5239 -22.5741 -8.4031 -9.5932 -16.6672 46.6502 24.0744 3.4734 -28.1040 2.1074 -17.8281 30.2482 8.0722 14.6953 5.9091 54.9374 29.7696 3.9108 19.7737 -50.9076 10.9928 43.3878 -29.5050 29.7552 7.9469 24.7630 5.2868 -4.1381 42.7756 7.4598 0.6324 10.9075 -5.3393 5.7573 30.0367 -6.9852 -0.6537 40.2042 -8.3456 0.2361 19.8154 -0.0049 5.7011 39.4897 -20.6710 19.4213 29.9250 -10.8406 6.7864 5.4893 -21.1511 4.3493 36.3381 -6.3770 7.4015 38.3109 -14.9531 8.4015 21.8839 -8.5198 8.7410 16.0424 47.0177 -23.7647 -4.2387 -28.8053 -2.1710 18.3378 29.2639 -7.8493
0.0000 0.0000 0.0000 -119.9710 85.3303 -67.6622 24.8689 5.8071 -0.7804 6.0387 0.7272 -12.4174 2.6741 -6.8659 10.0139 -0.2614 -0.0892 0.3725 -27.1651 -24.6884 -11.7151 8.4428 5.9838 -15.7854 16.7005 -11.4789 26.1218 0.2837 -0.5692 -0.0136 -11.5061 -0.7389 24.5122 21.1149 6.4578 4.1348 -19.2676 -20.5321 34.2238 -0.6419 -10.8048 13.0848 -5.2213 1.6444 -14.0789 -36.0002 -22.3290 3.7292 -89.7529 -19.7633 -61.7154 21.6382 17.6195 11.0542 15.5643 39.4811 -12.2785 -23.5429 5.5024 3.4892 -42.8645 7.3596 -1.0274 -11.4075 -4.8275 -5.7743 -30.3150 -7.7348 0.9321 -40.4570 -8.5070 0.0039 -19.7740 -0.4370 -5.1967 -40.5507 -20.8212 -19.3618 -29.8331 -11.0493 -6.7471 -5.5137 -21.4014 -4.6535 -36.6845 -5.7346 -6.7193 -37.1169 -15.0080 -8.7162 -22.4390 -8.3028 -9.6239 -16.6272 46.7378 24.0676 3.5347 -27.9421 2.0163 -18.0588 30.2124 8.2172 14.5361 5.6867 55.0127 29.4671 3.8879 19.9361 -51.0224 10.8858 43.5096 -29.3856 29.7774 8.0102 24.7542 5.2800 -4.1878 42.8289 7.4241 0.5901 10.8233 -5.3131 5.6568 29.9739 -6.9491 -0.7612 40.1657 -8.3829 0.1806 19.7309 -0.0869 5.7146 39.5332 -20.6889 19.4799 29.9084 -10.8257 6.7291 5.4517 -21.0894 4.2362 36.2697 -6.3516 7.3843 38.1712 -14.9412 8.3180 21.7748 -8.6212 8.7449 15.9271 47.0383 -23.7556 -4.1520 -28.7851 -2.0241 18.4041 29.1951 -7.9477
0.0000 0.0000 0.0000 -118.3699 85.3088 -69.0195 25.0444 5.5768 -0.8002 6.1698 0.8433 -12.6757 2.8285 -6.8938 10.1451 -0.2889 -0.1444 0.3394 -27.4380 -24.7095 -11.6599 8.5242 5.8881 -15.9264 16.7234 -11.5073 26.4627 0.2653 -0.5300 -0.0087 -11.6190 -0.9970 25.1635 21.2058 6.6206 4.2868 -19.5875 -21.0812 34.9002 -0.7160 -10.7099 13.2503 -5.4459 1.5220 -14.3193 -36.2498 -22.5151 3.6124 -89.5789 -20.0590 -61.7960 21.7283 17.6048 11.2282 15.5724 39.7202 -12.2548 -23.5255 5.5157 3.5602 -42.8389 7.3395 -1.0395 -11.4156 -4.8539 -5.7267 -30.2735 -7.7453 1.0281 -40.4156 -8.5447 -0.0102 -19.7040 -0.3639 -5.1530 -40.5607 -20.8307 -19.3684 -29.8959 -11.0265 -6.7887 -5.4879 -21.2826 -4.7061 -36.6557 -5.7564 -6.6752 -37.2850 -14.9705 -8.8262 -22.3701 -8.2755 -9.5984 -16.5635 46.6746 24.0628 3.4793 -27.7789 1.8879 -18.0925 30.1804 8.2743 14.2292 5.5010 55.3228 29.2755 4.0302 20.0914 -51.5123 11.0810 43.6327 -29.2412 29.9444 7.8972 24.6760 5.2899 -4.2300 42.9137 7.4236 0.6421 10.7855 -5.2590 5.6049 30.0875 -6.8596 -0.8607 40.1343 -8.3946 0.2107 19.7541 -0.1304 5.7467 39.5500 -20.7154 19.5107 29.8888 -10.8635 6.6828 5.4670 -21.0743 4.2843 36.2938 -6.2856 7.4183 38.1278 -14.9379 8.3177 21.7503 -8.6470 8.7971 15.8977 46.9767 -23.7380 -4.0569 -28.7729 -1.9491 18.4811 29.1249 -8.0709
0.0000 0.0000 0.0000 -116.4451 85.2513 -70.5748 25.1433 5.3801 -0.8735 6.4045 0.7936 -12.8873 3.0137 -6.9645 10.2628 -0.3588 -0.2125 0.3287 -27.8191 -24.7156 -11.6226 8.6154 5.7728 -16.1481 16.8165 -11.6304 26.9743 0.2219 -0.5082 0.0068 -11.7230 -1.0618 26.0340 21.4114 6.7728 4.4100 -19.7932 -21.6374 35.5617 -0.8069 -10.7690 13.5340 -5.7383 1.3084 -14.7191 -36.5106 -22.8594 3.5397 -89.5090 -20.2277 -61.9675 21.8643 17.5871 11.3653 15.6441 39.9981 -12.2111 -23.5021 5.5685 3.5880 -42.8293 7.3291 -1.0679 -11.3809 -4.8709 -5.6502 -30.2149 -7.7218 1.0887 -40.3923 -8.6041 -0.0273 -19.7295 -0.3469 -5.1182 -40.5534 -20.8516 -19.3470 -29.9879 -11.0501 -6.7960 -5.4755 -21.1161 -4.6805 -36.6541 -5.8135 -6.6494 -37.3672 -14.9509 -8.8737 -22.4226 -8.3181 -9.6101 -16.5354 46.5669 24.0631 3.4385 -27.6899 1.8402 -17.9793 30.2223 8.2758 14.0686 5.5046 55.5765 29.1161 4.3353 20.1287 -52.1265 11.4383 43.7151 -29.1918 30.1092 7.7212 24.5664 5.3124 -4.2570 42.9748 7.4345 0.7377 10.7993 -5.2619 5.6123 30.2262 -6.8568 -0.8781 40.0532 -8.4114 0.1867 19.7955 -0.1043 5.7784 39.5787 -20.6983 19.5449 29.9022 -10.8407 6.6916 5.4872 -21.0955 4.3965 36.3443 -6.2651 7.4257 38.1690 -14.9408 8.4101 21.7750 -8.6403 8.8525 15.9423 46.8890 -23.7875 -3.9852 -28.7515 -1.9396 18.5651 29.1183 -8.1339
0.0000 0.0000 0.0000 -115.5341 85.2233 -71.2196 25.2958 5.2078 -0.8483 6.5379 0.6888 -12.9311 3.1298 -7.0516 10.4059 -0.4065 -0.2442 0.3280 -28.3954 -24.7033 -11.7230 8.6284 5.6667 -16.2819 16.8477 -11.7377 27.1111 0.1721 -0.4923 0.0125 -11.7172 -1.0603 26.8728 21.6253 6.9050 4.5227 -19.9158 -22.0321 36.0179 -0.8891 -10.9016 13.6652 -5.9805 1.0227 -14.9699 -36.6865 -23.0319 3.5231 -89.5803 -20.3074 -62.0564 21.9927 17.4378 11.4642 15.6417 40.1029 -12.1079 -23.4995 5.6117 3.5193 -42.8784 7.3475 -1.0879 -11.3896 -4.9000 -5.6270 -30.2020 -7.6866 1.1084 -40.3413 -8.6691 -0.0367 -19.7106 -0.3831 -5.1005 -40.5458 -20.8568 -19.3027 -30.0111 -11.0768 -6.7766 -5.4496 -20.9894 -4.6481 -36.6337 -5.8777 -6.6189 -37.3873 -14.9164 -8.8839 -22.5551 -8.3675 -9.6561 -16.5901 46.5603 24.1409 3.4083 -27.7494 1.8774 -17.8333 30.3491 8.2614 14.0543 5.4867 55.6679 28.9729 4.7606 20.1075 -52.5058 11.6512 43.8199 -29.2176 30.1105 7.5884 24.4859 5.2999 -4.2721 42.9969 7.4341 0.7962 10.8207 -5.2689 5.6040 30.3097 -6.8989 -0.8609 39.9979 -8.4470 0.1378 19.8157 -0.0621 5.7754 39.5954 -20.6808 19.6007 29.9108 -10.7847 6.7408 5.4581 -21.1014 4.4480 36.3719 -6.3404 7.3890 38.1981 -14.9598 8.4790 21.8176 -8.6202 8.8654 16.0434 46.8358 -23.9420 -3.9698 -28.7478 -1.9596 18.5469 29.1901 -8.1395
0.0000 0.0000 0.0000 -115.5413 85.2211 -71.1335 25.5250 5.0642 -0.7292 6.5143 0.5891 -12.8432 3.2005 -7.1188 10.6046 -0.4115 -0.2475 0.3393 -29.1594 -24.6305 -11.9441 8.5870 5.6206 -16.3455 16.7812 -11.7887 26.7870 0.1420 -0.5027 -0.0177 -11.5812 -0.9993 27.4711 21.8218 7.0816 4.6621 -20.0157 -22.2791 36.3336 -0.9760 -11.0848 13.6218 -6.1301 0.6724 -15.0366 -36.7415 -22.9670 3.5228 -89.7812 -20.4093 -61.9310 22.0883 17.0452 11.5197 15.5166 39.9843 -11.9229 -23.5171 5.6290 3.4651 -42.9068 7.3793 -1.1318 -11.3823 -4.9160 -5.6286 -30.2254 -7.6478 1.1227 -40.2962 -8.7223 -0.0448 -19.6429 -0.4036 -5.1381 -40.5443 -20.8464 -19.2638 -29.9585 -11.0953 -6.7371 -5.4570 -20.9771 -4.6105 -36.6146 -5.9020 -6.6164 -37.3618 -14.9040 -8.9024 -22.6461 -8.4006 -9.6565 -16.6924 46.6383 24.2502 3.4139 -27.8276 1.9645 -17.7726 30.4705 8.2623 14.1286 5.3966 55.5855 28.7904 5.0029 19.9979 -52.5443 11.6311 43.9555 -29.2497 29.9577 7.5418 24.4745 5.2448 -4.2920 42.9821 7.3867 0.7806 10.7869 -5.3069 5.5964 30.3075 -6.9411 -0.8398 40.0206 -8.4854 0.1247 19.8393 -0.0560 5.7664 39.6335 -20.6794 19.6747 29.9118 -10.7450 6.7268 5.4240 -21.0666 4.4293 36.3475 -6.5037 7.3424 38.1844 -14.9539 8.4647 21.8608 -8.6002 8.8410 16.1169 46.8135 -24.0469 -4.0208 -28.7109 -2.0054 18.4807 29.2844 -8.1364
0.0000 0.0000 0.0000 -116.0023 85.2178 -70.7348 25.7886 4.9798 -0.5802 6.3946 0.5296 -12.7493 3.2397 -7.1568 10.8147 -0.4030 -0.2402 0.3629 -29.9445 -24.4815 -12.1725 8.5811 5.6323 -16.4505 16.6616 -11.8604 26.1733 0.1450 -0.5115 -0.0450 -11.4039 -0.9343 27.7899 22.0632 7.3320 4.8065 -20.1767 -22.5452 36.6614 -1.0391 -11.2427 13.5182 -6.2332 0.2502 -15.0645 -36.7296 -22.7913 3.4712 -90.0782 -20.5872 -61.6671 22.1165 16.4141 11.5344 15.3301 39.7853 -11.6934 -23.5399 5.6086 3.4488 -42.8973 7.4230 -1.1632 -11.3467 -4.9355 -5.6203 -30.2430 -7.6281 1.1365 -40.3001 -8.7534 -0.0513 -19.5802 -0.3412 -5.1897 -40.5707 -20.8460 -19.2417 -29.9109 -11.0974 -6.7277 -5.4703 -20.9980 -4.5865 -36.6066 -5.9035 -6.6276 -37.3327 -14.9007 -8.9121 -22.6070 -8.4118 -9.6550 -16.7525 46.7264 24.3063 3.4763 -27.8275 2.0079 -17.8261 30.5476 8.2803 14.2339 5.2769 55.4094 28.5660 5.1324 19.9707 -52.4183 11.4939 44.1076 -29.2954 29.8053 7.5785 24.5284 5.2106 -4.2903 42.9625 7.3399 0.7473 10.7292 -5.2964 5.5703 30.2318 -6.9601 -0.8243 40.1013 -8.4957 0.1151 19.8481 -0.0452 5.7584 39.6593 -20.7116 19.7283 29.9044 -10.7601 6.7365 5.3770 -21.0457 4.3336 36.3335 -6.5456 7.3506 38.1299 -14.9191 8.4258 21.9143 -8.6651 8.8087 16.1086 46.7657 -24.0605 -4.0754 -28.6824 -2.0307 18.3920 29.3425 -8.0939
0.0000 0.0000 0.0000 -116.1881 85.2246 -70.5885 26.0493 4.9579 -0.4630 6.2914 0.5560 -12.6979 3.3091 -7.2075 11.0111 -0.3784 -0.2415 0.3680 -30.5252 -24.2353 -12.2949 8.6552 5.7044 -16.6447 16.5089 -11.9845 25.5325 0.1707 -0.4927 -0.0559 -11.2652 -0.8670 27.8904 22.3574 7.6330 4.9265 -20.4019 -22.9293 37.0565 -1.0293 -11.3410 13.4963 -6.3660 -0.1922 -15.1384 -36.7836 -22.6477 3.3975 -90.2214 -20.9225 -61.3347 22.1166 15.6944 11.5043 15.1730 39.7486 -11.4999 -23.5756 5.5948 3.4745 -42.8498 7.4300 -1.1523 -11.3290 -4.9420 -5.5963 -30.2414 -7.6005 1.1410 -40.3340 -8.7734 -0.0568 -19.5495 -0.2207 -5.2089 -40.5765 -20.8438 -19.2580 -29.9154 -11.0684 -6.7494 -5.4557 -20.9994 -4.5758 -36.6067 -5.8995 -6.6705 -37.2657 -14.9222 -8.9202 -22.5103 -8.3821 -9.6272 -16.8222 46.7641 24.3275 3.4770 -27.7868 1.9891 -17.9112 30.5749 8.3275 14.2559 5.1803 55.2699 28.3702 5.2466 20.1010 -52.2885 11.3562 44.1933 -29.3609 29.7844 7.6319 24.5751 5.2372 -4.2742 42.9768 7.3151 0.7154 10.7006 -5.2222 5.5493 30.1590 -6.9289 -0.8289 40.1609 -8.4931 0.0955 19.8969 -0.0717 5.7513 39.7023 -20.7299 19.7789 29.9156 -10.7996 6.7270 5.3859 -21.0301 4.2594 36.3112 -6.5476 7.4181 38.0437 -14.8849 8.3771 21.8929 -8.7204 8.7374 16.0666 46.7271 -24.0153 -4.0871 -28.6584 -1.9878 18.3251 29.3367 -8.0260
0.0000 0.0000 0.0000 -115.5991 85.2595 -71.0175 26.2651 4.9898 -0.4273 6.3491 0.6591 -12.7094 3.4458 -7.2505 11.1370 -0.3637 -0.2539 0.3454 -30.8150 -23.9266 -12.2650 8.8364 5.7890 -16.9105 16.3309 -12.2103 25.0945 0.1963 -0.4575 -0.0308 -11.1763 -0.8247 27.9322 22.6442 7.9048 5.0191 -20.6048 -23.4296 37.5687 -1.0606 -11.4400 13.5484 -6.5690 -0.5751 -15.3044 -36.9670 -22.7231 3.3908 -90.0814 -21.3941 -61.0116 22.1718 15.0772 11.4890 15.0922 40.0362 -11.3980 -23.5981 5.5629 3.4907 -42.7837 7.4074 -1.0996 -11.3253 -4.9590 -5.5727 -30.2151 -7.6000 1.1746 -40.3909 -8.7511 -0.0715 -19.5502 -0.1440 -5.2037 -40.5842 -20.8474 -19.2814 -29.9460 -11.0477 -6.7656 -5.4568 -20.9621 -4.6093 -36.6252 -5.8776 -6.7019 -37.2335 -14.9071 -8.9088 -22.5109 -8.3612 -9.5421 -16.8628 46.7391 24.3685 3.4323 -27.8242 1.9257 -17.9766 30.5502 8.3493 14.1694 5.1270 55.1888 28.2332 5.4812 20.3091 -52.3136 11.3156 44.2483 -29.4606 29.9678 7.6194 24.5609 5.3119 -4.2618 43.0115 7.3123 0.7316 10.6632 -5.1807 5.5580 30.1547 -6.8703 -0.8621 40.1749 -8.4902 0.0851 19.9657 -0.0755 5.7291 39.7480 -20.7128 19.8048 29.9084 -10.8238 6.7087 5.4084 -21.0454 4.2561 36.2960 -6.5352 7.4798 37.9828 -14.8586 8.3502 21.8350 -8.6906 8.6984 16.0407 46.6963 -23.9510 -4.0486 -28.6707 -1.8983 18.3181 29.2437 -7.9989
